<?xml version="1.0" encoding="utf-8"?>
<!-- Generator: Adobe Illustrator 26.3.1, SVG Export Plug-In . SVG Version: 6.00 Build 0)  -->
<svg version="1.1" id="Layer_1" xmlns="http://www.w3.org/2000/svg" xmlns:xlink="http://www.w3.org/1999/xlink" x="0px" y="0px"
	 viewBox="0 0 1106.4 441.3" style="enable-background:new 0 0 1106.4 441.3;" xml:space="preserve">
<style type="text/css">
	.st0{fill:#0167B4;}
	.st1{fill:#9D322F;}
	.st2{fill:url(#SVGID_1_);}
	.st3{fill:#CA7C1B;}
	.st4{fill:url(#SVGID_00000091008260302781383270000008182955956854091707_);}
</style>
<g>
	<g>
		<polygon class="st0" points="165,167 1.6,167 1.6,212.2 57.5,212.2 57.5,353.2 109.1,353.2 109.1,212.2 165,212.2 		"/>
		<path class="st0" d="M262.6,163.2c-57.5,0-100.6,43.4-100.6,96.8v0.5c0,53.5,42.6,96.3,100,96.3s100.6-43.4,100.6-96.8v-0.5
			C362.6,206.1,320.1,163.2,262.6,163.2z M310,260.6c0,26.9-18.9,49.8-47.4,49.8c-28.2,0-47.6-23.4-47.6-50.3v-0.5
			c0-26.9,18.9-49.8,47.1-49.8c28.5,0,47.9,23.4,47.9,50.3V260.6z"/>
		<path class="st0" d="M453.9,167h-79.8v186.2h51.6V300h25.5c46.3,0,80.1-23.1,80.1-67v-0.5C531.3,191.2,501,167,453.9,167z
			 M479.7,235.3c0,14.6-11.2,24.2-29.5,24.2h-24.5v-49.2h24.2c18.6,0,29.8,8.5,29.8,24.5V235.3z"/>
	</g>
	<g>
		<path class="st0" d="M39.8,52.2L0,140.3h10.1l10.4-23.1h47.6l10.2,23.1h10.6l-39.8-88H39.8z M24.4,108.4l20-44.6l19.9,44.6H24.4z"
			/>
		<polygon class="st0" points="136.8,100.5 104.9,52.8 94.9,52.8 94.9,140.3 104.5,140.3 104.5,69.6 136.4,116.3 136.9,116.3 
			168.7,69.4 168.7,140.3 178.6,140.3 178.6,52.8 168.6,52.8 		"/>
		<polygon class="st0" points="202.2,100.7 249.9,100.7 249.9,91.7 202.2,91.7 202.2,61.8 255.5,61.8 255.5,52.8 192.3,52.8 
			192.3,140.3 256.1,140.3 256.1,131.3 202.2,131.3 		"/>
		<path class="st0" d="M319.5,101.6c2.9-1.4,5.4-3.2,7.6-5.3c2.1-2.1,3.8-4.6,4.9-7.5c1.2-2.9,1.7-6.1,1.7-9.8
			c0-3.9-0.7-7.5-2.2-10.7c-1.5-3.2-3.6-6-6.4-8.2c-2.7-2.3-6.1-4.1-9.9-5.3c-3.9-1.2-8.2-1.9-13.1-1.9h-37.6v87.4h9.9v-34h25
			l25.4,34h12.1L310,104.6C313.4,104,316.5,103,319.5,101.6z M274.4,97.5V61.9h27c7.1,0,12.6,1.5,16.5,4.6c3.9,3.1,5.9,7.3,5.9,12.8
			c0,2.8-0.6,5.4-1.7,7.6c-1.1,2.3-2.7,4.2-4.7,5.7c-2,1.5-4.4,2.7-7.1,3.6c-2.8,0.8-5.8,1.3-9,1.3H274.4z"/>
		<rect x="344.6" y="52.8" class="st0" width="9.9" height="87.4"/>
		<path class="st0" d="M437.2,120c-4.2,4-8.4,7.1-12.7,9.3c-4.3,2.2-9.5,3.3-15.5,3.3c-4.8,0-9.3-0.9-13.4-2.8
			c-4.1-1.9-7.7-4.4-10.7-7.7c-3-3.2-5.4-7.1-7.1-11.5c-1.7-4.4-2.6-9.2-2.6-14.2s0.9-9.8,2.6-14.2c1.7-4.4,4.1-8.2,7.1-11.4
			c3-3.2,6.6-5.8,10.7-7.6c4.1-1.8,8.6-2.7,13.4-2.7c6,0,11.1,1.1,15.4,3.4c4.3,2.2,8.3,5.1,12.1,8.6l6.7-7.2
			c-2.2-2.1-4.4-4-6.7-5.7c-2.3-1.7-4.9-3.2-7.6-4.4c-2.7-1.2-5.7-2.1-8.9-2.8c-3.2-0.7-6.8-1-10.8-1c-6.4,0-12.3,1.2-17.7,3.6
			c-5.4,2.4-10.1,5.6-14,9.7c-3.9,4.1-7,8.9-9.2,14.4c-2.2,5.5-3.3,11.4-3.3,17.6c0,6.3,1.1,12.2,3.3,17.7
			c2.2,5.5,5.3,10.3,9.2,14.3c3.9,4,8.5,7.2,13.9,9.6c5.3,2.3,11.2,3.5,17.5,3.5c4,0,7.6-0.4,10.9-1.1c3.2-0.7,6.3-1.8,9.1-3.1
			c2.8-1.3,5.5-2.9,7.9-4.8c2.5-1.9,4.8-4,7.1-6.3L437.2,120z"/>
		<path class="st0" d="M482.1,52.2l-39.8,88h10.1l10.4-23.1h47.6l10.2,23.1h10.6l-39.8-88H482.1z M466.6,108.4l20-44.6l19.9,44.6
			H466.6z"/>
		<polygon class="st0" points="601.5,52.8 601.5,122.9 546.4,52.8 537.1,52.8 537.1,140.3 546.8,140.3 546.8,68.6 603.2,140.3 
			611.1,140.3 611.1,52.8 		"/>
	</g>
	<g>
		<path class="st1" d="M218.3,438.4v1.1h-18.8l-14-20.2h-5.9v20.2h-17.1v-62.2h29.5c7.4,0,13.1,2.1,17.2,6.2
			c4.1,4.1,6.2,9.2,6.2,15.2c0,4.2-0.9,7.8-2.8,10.9c-1.9,3.1-5.2,5.7-10,7.9L218.3,438.4z M191.9,391.3h-12.4v14.9h12.6
			c2.1,0,3.7-0.7,4.8-2.1c1.1-1.4,1.6-3.1,1.6-5.1c0-2.1-0.6-4-1.7-5.5C195.7,392.1,194.1,391.3,191.9,391.3z M252.6,377.3
			l12.5,21.3l13-21.3h19.2v0.8l-24,36.6v24.8h-17.1v-24.8L233.4,378v-0.7H252.6z M358.9,439.5l-4-10.2h-27l-4,10.2h-18.1l27.1-62.2
			h17.2l27,62.2H358.9z M349.2,414.5l-7.7-19.8l-7.8,19.8H349.2z M413.7,377.3l25.5,34c-0.1-1.8-0.3-6.1-0.5-12.7v-21.3h17.2v62.2
			h-14.5L416.2,406l0.3,13.6v19.9h-17.2v-62.2H413.7z M559.6,383.4l-8.4,11.1c-3.7-2.8-8.4-4.3-14.1-4.3c-2.3,0-4.2,0.4-5.8,1.2
			c-1.6,0.8-2.4,1.9-2.4,3.5c0,2,0.8,3.3,2.3,4c1.6,0.7,4.1,1.2,7.7,1.6c3.3,0.4,6.3,1,9,1.8c2.7,0.9,5.3,2.1,7.7,3.6
			c2.4,1.5,4.4,3.6,5.7,6.2s2.1,5.6,2.1,9c0,4.5-1.3,8.3-3.9,11.5c-2.6,3.1-5.8,5.4-9.7,6.7s-8.2,2-12.9,2.1
			c-5.9,0.1-10.8-0.7-14.9-2.2c-4.1-1.5-8.1-4.4-12.1-8.8l9.4-11.1c4.7,4.7,10.5,7,17.7,7c2.9,0,5.2-0.5,6.9-1.5
			c1.7-1,2.6-2.3,2.6-4c0-3.1-3.4-5-10.1-5.7c-3.7-0.4-6.8-0.9-9.5-1.6c-2.6-0.7-5.2-1.7-7.6-3.2c-2.4-1.4-4.3-3.4-5.6-6
			c-1.3-2.6-1.9-5.7-1.9-9.5c0-6.2,2.5-10.8,7.4-14c4.9-3.2,10.9-4.8,17.9-4.8C546,376,553.5,378.5,559.6,383.4z M637.1,424.6v14.8
			h-48.3v-62.2h47.1V392h-30.3v8.9h28.5v14.3h-28.5v9.4H637.1z M710,439.5l-4-10.2h-27l-4,10.2H657l27.1-62.2h17.2l27,62.2H710z
			 M700.2,414.5l-7.7-19.8l-7.8,19.8H700.2z M792.8,419.8l10,11.6c-6.3,6.5-14.4,9.7-24.2,9.7c-5.7,0-10.8-0.9-15.1-2.6
			c-4.3-1.7-7.8-4.1-10.3-7.2c-2.5-3.1-4.4-6.5-5.7-10.2c-1.3-3.8-1.9-7.8-1.9-12.2c0-4.1,0.7-8.1,2-11.9c1.3-3.8,3.3-7.4,5.9-10.5
			c2.6-3.2,6-5.7,10.4-7.6c4.3-1.9,9.2-2.9,14.7-2.9c9,0,16.8,3.3,23.4,10l-10.5,10.7c-3.7-3.6-8-5.4-12.8-5.4
			c-5.3,0-9.4,1.8-12.1,5.5c-2.7,3.6-4.1,7.8-4,12.4c0.1,4.7,1.4,8.7,4,12.1c2.6,3.4,6.7,5.1,12.1,5.1c2.2,0,4.7-0.5,7.3-1.6
			C788.5,423.6,790.8,422,792.8,419.8z M883.1,438.4v1.1h-18.8l-14-20.2h-5.9v20.2h-17.1v-62.2h29.5c7.4,0,13.1,2.1,17.2,6.2
			c4.1,4.1,6.2,9.2,6.2,15.2c0,4.2-0.9,7.8-2.8,10.9c-1.9,3.1-5.2,5.7-10,7.9L883.1,438.4z M856.7,391.3h-12.4v14.9h12.6
			c2.1,0,3.7-0.7,4.8-2.1c1.1-1.4,1.6-3.1,1.6-5.1c0-2.1-0.6-4-1.7-5.5C860.5,392.1,858.9,391.3,856.7,391.3z M956.7,424.6v14.8
			h-48.3v-62.2h47.1V392h-30.3v8.9h28.5v14.3h-28.5v9.4H956.7z M1029.6,383.4l-8.4,11.1c-3.7-2.8-8.4-4.3-14.1-4.3
			c-2.3,0-4.2,0.4-5.8,1.2c-1.6,0.8-2.4,1.9-2.4,3.5c0,2,0.8,3.3,2.3,4c1.6,0.7,4.1,1.2,7.7,1.6c3.3,0.4,6.3,1,9,1.8
			c2.7,0.9,5.3,2.1,7.7,3.6c2.4,1.5,4.4,3.6,5.7,6.2c1.4,2.6,2.1,5.6,2.1,9c0,4.5-1.3,8.3-3.9,11.5c-2.6,3.1-5.8,5.4-9.7,6.7
			c-3.9,1.3-8.2,2-12.9,2.1c-5.9,0.1-10.8-0.7-14.9-2.2c-4.1-1.5-8.1-4.4-12.1-8.8l9.4-11.1c4.7,4.7,10.5,7,17.7,7
			c2.9,0,5.2-0.5,6.9-1.5c1.7-1,2.6-2.3,2.6-4c0-3.1-3.4-5-10.1-5.7c-3.7-0.4-6.8-0.9-9.5-1.6c-2.6-0.7-5.2-1.7-7.6-3.2
			s-4.3-3.4-5.6-6c-1.3-2.6-1.9-5.7-1.9-9.5c0-6.2,2.5-10.8,7.4-14c4.9-3.2,10.9-4.8,17.9-4.8C1016,376,1023.6,378.5,1029.6,383.4z
			 M1071.2,439.5v-47.7h-17.6v-14.5h52.2v14.5h-17.7v47.7H1071.2z M117.3,377.3V388h-11.6v-10.8H100v26.6h5.6v-10.5h11.6v10.5h5.6
			v-26.6H117.3z M75.4,377.3h-8.1v5.2h8.1v21.4h5.6v-21.4h8v-5.2h-8H75.4z M50.9,403.9h5.6v-26.6h-5.6V403.9z M33.9,377.3l-3.4,9.5
			l-2.2,8.1l-5.8-17.6h-3.9l-5.8,17.6l-2.2-8.1l-3.4-9.5H1l9.4,26.6h5l5.2-15l5.2,15h5l9.4-26.6H33.9z"/>
		<linearGradient id="SVGID_1_" gradientUnits="userSpaceOnUse" x1="0.9684" y1="408.5512" x2="1105.8379" y2="408.5512">
			<stop  offset="0" style="stop-color:#D48A14;stop-opacity:0"/>
			<stop  offset="1" style="stop-color:#D48A14"/>
		</linearGradient>
		<path class="st2" d="M218.3,438.4v1.1h-18.8l-14-20.2h-5.9v20.2h-17.1v-62.2h29.5c7.4,0,13.1,2.1,17.2,6.2
			c4.1,4.1,6.2,9.2,6.2,15.2c0,4.2-0.9,7.8-2.8,10.9c-1.9,3.1-5.2,5.7-10,7.9L218.3,438.4z M191.9,391.3h-12.4v14.9h12.6
			c2.1,0,3.7-0.7,4.8-2.1c1.1-1.4,1.6-3.1,1.6-5.1c0-2.1-0.6-4-1.7-5.5C195.7,392.1,194.1,391.3,191.9,391.3z M252.6,377.3
			l12.5,21.3l13-21.3h19.2v0.8l-24,36.6v24.8h-17.1v-24.8L233.4,378v-0.7H252.6z M358.9,439.5l-4-10.2h-27l-4,10.2h-18.1l27.1-62.2
			h17.2l27,62.2H358.9z M349.2,414.5l-7.7-19.8l-7.8,19.8H349.2z M413.7,377.3l25.5,34c-0.1-1.8-0.3-6.1-0.5-12.7v-21.3h17.2v62.2
			h-14.5L416.2,406l0.3,13.6v19.9h-17.2v-62.2H413.7z M559.6,383.4l-8.4,11.1c-3.7-2.8-8.4-4.3-14.1-4.3c-2.3,0-4.2,0.4-5.8,1.2
			c-1.6,0.8-2.4,1.9-2.4,3.5c0,2,0.8,3.3,2.3,4c1.6,0.7,4.1,1.2,7.7,1.6c3.3,0.4,6.3,1,9,1.8c2.7,0.9,5.3,2.1,7.7,3.6
			c2.4,1.5,4.4,3.6,5.7,6.2s2.1,5.6,2.1,9c0,4.5-1.3,8.3-3.9,11.5c-2.6,3.1-5.8,5.4-9.7,6.7s-8.2,2-12.9,2.1
			c-5.9,0.1-10.8-0.7-14.9-2.2c-4.1-1.5-8.1-4.4-12.1-8.8l9.4-11.1c4.7,4.7,10.5,7,17.7,7c2.9,0,5.2-0.5,6.9-1.5
			c1.7-1,2.6-2.3,2.6-4c0-3.1-3.4-5-10.1-5.7c-3.7-0.4-6.8-0.9-9.5-1.6c-2.6-0.7-5.2-1.7-7.6-3.2c-2.4-1.4-4.3-3.4-5.6-6
			c-1.3-2.6-1.9-5.7-1.9-9.5c0-6.2,2.5-10.8,7.4-14c4.9-3.2,10.9-4.8,17.9-4.8C546,376,553.5,378.5,559.6,383.4z M637.1,424.6v14.8
			h-48.3v-62.2h47.1V392h-30.3v8.9h28.5v14.3h-28.5v9.4H637.1z M710,439.5l-4-10.2h-27l-4,10.2H657l27.1-62.2h17.2l27,62.2H710z
			 M700.2,414.5l-7.7-19.8l-7.8,19.8H700.2z M792.8,419.8l10,11.6c-6.3,6.5-14.4,9.7-24.2,9.7c-5.7,0-10.8-0.9-15.1-2.6
			c-4.3-1.7-7.8-4.1-10.3-7.2c-2.5-3.1-4.4-6.5-5.7-10.2c-1.3-3.8-1.9-7.8-1.9-12.2c0-4.1,0.7-8.1,2-11.9c1.3-3.8,3.3-7.4,5.9-10.5
			c2.6-3.2,6-5.7,10.4-7.6c4.3-1.9,9.2-2.9,14.7-2.9c9,0,16.8,3.3,23.4,10l-10.5,10.7c-3.7-3.6-8-5.4-12.8-5.4
			c-5.3,0-9.4,1.8-12.1,5.5c-2.7,3.6-4.1,7.8-4,12.4c0.1,4.7,1.4,8.7,4,12.1c2.6,3.4,6.7,5.1,12.1,5.1c2.2,0,4.7-0.5,7.3-1.6
			C788.5,423.6,790.8,422,792.8,419.8z M883.1,438.4v1.1h-18.8l-14-20.2h-5.9v20.2h-17.1v-62.2h29.5c7.4,0,13.1,2.1,17.2,6.2
			c4.1,4.1,6.2,9.2,6.2,15.2c0,4.2-0.9,7.8-2.8,10.9c-1.9,3.1-5.2,5.7-10,7.9L883.1,438.4z M856.7,391.3h-12.4v14.9h12.6
			c2.1,0,3.7-0.7,4.8-2.1c1.1-1.4,1.6-3.1,1.6-5.1c0-2.1-0.6-4-1.7-5.5C860.5,392.1,858.9,391.3,856.7,391.3z M956.7,424.6v14.8
			h-48.3v-62.2h47.1V392h-30.3v8.9h28.5v14.3h-28.5v9.4H956.7z M1029.6,383.4l-8.4,11.1c-3.7-2.8-8.4-4.3-14.1-4.3
			c-2.3,0-4.2,0.4-5.8,1.2c-1.6,0.8-2.4,1.9-2.4,3.5c0,2,0.8,3.3,2.3,4c1.6,0.7,4.1,1.2,7.7,1.6c3.3,0.4,6.3,1,9,1.8
			c2.7,0.9,5.3,2.1,7.7,3.6c2.4,1.5,4.4,3.6,5.7,6.2c1.4,2.6,2.1,5.6,2.1,9c0,4.5-1.3,8.3-3.9,11.5c-2.6,3.1-5.8,5.4-9.7,6.7
			c-3.9,1.3-8.2,2-12.9,2.1c-5.9,0.1-10.8-0.7-14.9-2.2c-4.1-1.5-8.1-4.4-12.1-8.8l9.4-11.1c4.7,4.7,10.5,7,17.7,7
			c2.9,0,5.2-0.5,6.9-1.5c1.7-1,2.6-2.3,2.6-4c0-3.1-3.4-5-10.1-5.7c-3.7-0.4-6.8-0.9-9.5-1.6c-2.6-0.7-5.2-1.7-7.6-3.2
			s-4.3-3.4-5.6-6c-1.3-2.6-1.9-5.7-1.9-9.5c0-6.2,2.5-10.8,7.4-14c4.9-3.2,10.9-4.8,17.9-4.8C1016,376,1023.6,378.5,1029.6,383.4z
			 M1071.2,439.5v-47.7h-17.6v-14.5h52.2v14.5h-17.7v47.7H1071.2z M117.3,377.3V388h-11.6v-10.8H100v26.6h5.6v-10.5h11.6v10.5h5.6
			v-26.6H117.3z M75.4,377.3h-8.1v5.2h8.1v21.4h5.6v-21.4h8v-5.2h-8H75.4z M50.9,403.9h5.6v-26.6h-5.6V403.9z M33.9,377.3l-3.4,9.5
			l-2.2,8.1l-5.8-17.6h-3.9l-5.8,17.6l-2.2-8.1l-3.4-9.5H1l9.4,26.6h5l5.2-15l5.2,15h5l9.4-26.6H33.9z"/>
	</g>
	<g>
		<path class="st3" d="M783.9,0h7.8v353.7h-7.8V0z M774,13.5V0.6L592.4,232.8h10.1L774,13.5z M774,26.8l-161.1,206h10.1L774,39.7
			V26.8z M774,67.3V54.5L634.5,232.8h10.1L774,67.3z M801.2,353.7h7.8V0h-7.8V353.7z M591.8,283.1h174.1v70.6h7.8v-78.4H591.8V283.1
			z M591.8,266.8h182.2V259H591.8V266.8z M591.8,249.7h182.2v-7.8H591.8V249.7z M894.6,218.8c-4.4-10.4-6.6-21.5-6.6-32.9v-0.5
			c0-11.4,2.2-22.5,6.6-32.9c4.3-10.1,10.3-19.1,18.1-26.8s16.8-13.8,26.8-18.1c10.4-4.4,21.5-6.6,32.9-6.6
			c11.4,0,22.5,2.2,32.9,6.6c10.1,4.3,19.1,10.3,26.8,18.1c7.8,7.8,13.8,16.8,18.1,26.8c4.4,10.4,6.6,21.5,6.6,32.9v0.5
			c0,11.4-2.2,22.5-6.6,32.9c-4.3,10.1-10.3,19.1-18.1,26.8c-7.8,7.8-16.8,13.8-26.8,18.1c-10.4,4.4-21.5,6.6-32.9,6.6
			s-22.5-2.2-32.9-6.6c-10.1-4.3-19.1-10.3-26.8-18.1C905,237.9,898.9,228.9,894.6,218.8z M895.8,186c0,42.3,34.3,76.6,76.6,76.6h0
			c42.3,0,76.6-34.3,76.6-76.6v-0.5c0-42.3-34.3-76.6-76.6-76.6h0c-42.3,0-76.6,34.3-76.6,76.6V186z M879.3,225.4
			c-5.3-12.5-8-25.7-8-39.3v-0.5c0-13.6,2.7-26.9,8-39.3c5.1-12,12.4-22.8,21.7-32.1c9.3-9.3,20.1-16.6,32.1-21.7
			c12.5-5.3,25.7-8,39.3-8c13.6,0,26.9,2.7,39.3,8c12,5.1,22.8,12.4,32.1,21.7c9.3,9.3,16.6,20.1,21.7,32.1c5.3,12.5,8,25.7,8,39.3
			v0.5c0,13.6-2.7,26.9-8,39.3c-5.1,12-12.4,22.8-21.7,32.1c-9.3,9.3-20.1,16.6-32.1,21.7c-12.5,5.3-25.7,8-39.3,8s-26.9-2.7-39.3-8
			c-12-5.1-22.8-12.4-32.1-21.7C891.7,248.3,884.4,237.5,879.3,225.4z M879.4,186.1c0,12.6,2.5,24.7,7.3,36.2
			c4.7,11.1,11.4,21,19.9,29.6c8.5,8.5,18.5,15.2,29.6,19.9c11.5,4.9,23.7,7.3,36.2,7.3c12.6,0,24.7-2.5,36.2-7.3
			c11.1-4.7,21-11.4,29.6-19.9c8.5-8.5,15.2-18.5,19.9-29.6c4.9-11.5,7.3-23.7,7.3-36.2v-0.5c0-12.6-2.5-24.7-7.3-36.2
			c-4.7-11.1-11.4-21-19.9-29.6c-8.5-8.5-18.5-15.2-29.6-19.9c-11.5-4.9-23.7-7.3-36.2-7.3s-24.7,2.5-36.2,7.3
			c-11.1,4.7-21,11.4-29.6,19.9c-8.5,8.5-15.2,18.5-19.9,29.6c-4.9,11.5-7.3,23.7-7.3,36.2V186.1z M864,231.9
			c-6.1-14.5-9.3-29.9-9.3-45.8v-0.5c0-15.9,3.1-31.3,9.3-45.8c5.9-14,14.4-26.6,25.2-37.4c10.8-10.8,23.4-19.3,37.4-25.2
			c14.5-6.1,29.9-9.3,45.8-9.3c15.9,0,31.3,3.1,45.8,9.3c14,5.9,26.6,14.4,37.4,25.2c10.8,10.8,19.3,23.4,25.2,37.4
			c6.1,14.5,9.3,29.9,9.3,45.8v0.5c0,15.9-3.1,31.3-9.3,45.8c-5.9,14-14.4,26.6-25.2,37.4c-10.8,10.8-23.4,19.3-37.4,25.2
			c-14.5,6.1-29.9,9.3-45.8,9.3c-15.9,0-31.3-3.1-45.8-9.3c-14-5.9-26.6-14.4-37.4-25.2C878.4,258.5,870,245.9,864,231.9z
			 M862.8,186.1c0,14.8,2.9,29.1,8.6,42.7c5.5,13.1,13.4,24.8,23.5,34.8c10.1,10.1,21.8,18,34.8,23.5c13.5,5.7,27.9,8.6,42.7,8.6
			c14.8,0,29.1-2.9,42.7-8.6c13.1-5.5,24.8-13.4,34.8-23.5c10.1-10.1,18-21.8,23.5-34.8c5.7-13.5,8.6-27.9,8.6-42.7v-0.5
			c0-14.8-2.9-29.1-8.6-42.7c-5.5-13.1-13.4-24.8-23.5-34.8c-10.1-10.1-21.8-18-34.8-23.5c-13.5-5.7-27.9-8.6-42.7-8.6
			c-14.8,0-29.1,2.9-42.7,8.6c-13.1,5.5-24.8,13.4-34.8,23.5c-10.1,10.1-18,21.8-23.5,34.8c-5.7,13.5-8.6,27.9-8.6,42.7V186.1z
			 M818.6,266.8H875c-2.1-2.5-4.1-5.1-6-7.8h-50.4V266.8z M818.6,249.7H863c-1.5-2.5-2.9-5.2-4.2-7.8h-40.2V249.7z M1095.8,133.3
			c-6.8-16-16.4-30.3-28.7-42.6c-12.3-12.3-26.7-22-42.6-28.7c-16.6-7-34.2-10.6-52.3-10.6c-18.1,0-35.7,3.6-52.3,10.6
			c-16,6.8-30.3,16.4-42.6,28.7c-12.3,12.3-22,26.7-28.7,42.6c-7,16.6-10.6,34.2-10.6,52.3v0.5c0,13.3,1.9,26.3,5.7,38.9h-17.4V0
			h-7.8v232.7l36.2,0c-5.9-14.9-8.9-30.5-8.9-46.7v-0.5c0-17,3.3-33.6,10-49.2c6.4-15.1,15.5-28.6,27.1-40.2
			c11.6-11.6,25.1-20.7,40.2-27.1c15.6-6.6,32.2-10,49.2-10c17,0,33.6,3.3,49.2,10c15.1,6.4,28.6,15.5,40.2,27.1
			c11.6,11.6,20.7,25.1,27.1,40.2c6.6,15.6,10,32.2,10,49.2v0.5c0,17-3.3,33.6-10,49.2c-6.4,15.1-15.5,28.6-27.1,40.2
			c-11.6,11.6-25.1,20.7-40.2,27.1c-15.6,6.6-32.2,10-49.2,10c-17,0-33.6-3.3-49.2-10c-15.1-6.4-28.6-15.5-40.2-27.1
			c-0.1-0.1-0.2-0.2-0.3-0.3l-64,0v78.6h7.8v-70.8h53c11.9,11.4,25.5,20.4,40.6,26.8c16.6,7,34.2,10.6,52.3,10.6
			c18.1,0,35.7-3.6,52.3-10.6c16-6.8,30.3-16.4,42.6-28.7c12.3-12.3,22-26.7,28.7-42.6c7-16.6,10.6-34.2,10.6-52.3v-0.5
			C1106.4,167.4,1102.8,149.9,1095.8,133.3z M656.2,232.7l117.9-151v151H656.2z M766.3,104.4l-94.1,120.5h94.1V104.4z"/>
		
			<linearGradient id="SVGID_00000119093097953210018250000006551312446573112745_" gradientUnits="userSpaceOnUse" x1="684.9756" y1="376.3104" x2="1018.8502" y2="42.4359">
			<stop  offset="0" style="stop-color:#FBC703;stop-opacity:0"/>
			<stop  offset="1" style="stop-color:#FBC703"/>
		</linearGradient>
		<path style="fill:url(#SVGID_00000119093097953210018250000006551312446573112745_);" d="M783.9,0h7.8v353.7h-7.8V0z M774,13.5
			V0.6L592.4,232.8h10.1L774,13.5z M774,26.8l-161.1,206h10.1L774,39.7V26.8z M774,67.3V54.5L634.5,232.8h10.1L774,67.3z
			 M801.2,353.7h7.8V0h-7.8V353.7z M591.8,283.1h174.1v70.6h7.8v-78.4H591.8V283.1z M591.8,266.8h182.2V259H591.8V266.8z
			 M591.8,249.7h182.2v-7.8H591.8V249.7z M894.6,218.8c-4.4-10.4-6.6-21.5-6.6-32.9v-0.5c0-11.4,2.2-22.5,6.6-32.9
			c4.3-10.1,10.3-19.1,18.1-26.8s16.8-13.8,26.8-18.1c10.4-4.4,21.5-6.6,32.9-6.6c11.4,0,22.5,2.2,32.9,6.6
			c10.1,4.3,19.1,10.3,26.8,18.1c7.8,7.8,13.8,16.8,18.1,26.8c4.4,10.4,6.6,21.5,6.6,32.9v0.5c0,11.4-2.2,22.5-6.6,32.9
			c-4.3,10.1-10.3,19.1-18.1,26.8c-7.8,7.8-16.8,13.8-26.8,18.1c-10.4,4.4-21.5,6.6-32.9,6.6s-22.5-2.2-32.9-6.6
			c-10.1-4.3-19.1-10.3-26.8-18.1C905,237.9,898.9,228.9,894.6,218.8z M895.8,186c0,42.3,34.3,76.6,76.6,76.6h0
			c42.3,0,76.6-34.3,76.6-76.6v-0.5c0-42.3-34.3-76.6-76.6-76.6h0c-42.3,0-76.6,34.3-76.6,76.6V186z M879.3,225.4
			c-5.3-12.5-8-25.7-8-39.3v-0.5c0-13.6,2.7-26.9,8-39.3c5.1-12,12.4-22.8,21.7-32.1c9.3-9.3,20.1-16.6,32.1-21.7
			c12.5-5.3,25.7-8,39.3-8c13.6,0,26.9,2.7,39.3,8c12,5.1,22.8,12.4,32.1,21.7c9.3,9.3,16.6,20.1,21.7,32.1c5.3,12.5,8,25.7,8,39.3
			v0.5c0,13.6-2.7,26.9-8,39.3c-5.1,12-12.4,22.8-21.7,32.1c-9.3,9.3-20.1,16.6-32.1,21.7c-12.5,5.3-25.7,8-39.3,8s-26.9-2.7-39.3-8
			c-12-5.1-22.8-12.4-32.1-21.7C891.7,248.3,884.4,237.5,879.3,225.4z M879.4,186.1c0,12.6,2.5,24.7,7.3,36.2
			c4.7,11.1,11.4,21,19.9,29.6c8.5,8.5,18.5,15.2,29.6,19.9c11.5,4.9,23.7,7.3,36.2,7.3c12.6,0,24.7-2.5,36.2-7.3
			c11.1-4.7,21-11.4,29.6-19.9c8.5-8.5,15.2-18.5,19.9-29.6c4.9-11.5,7.3-23.7,7.3-36.2v-0.5c0-12.6-2.5-24.7-7.3-36.2
			c-4.7-11.1-11.4-21-19.9-29.6c-8.5-8.5-18.5-15.2-29.6-19.9c-11.5-4.9-23.7-7.3-36.2-7.3s-24.7,2.5-36.2,7.3
			c-11.1,4.7-21,11.4-29.6,19.9c-8.5,8.5-15.2,18.5-19.9,29.6c-4.9,11.5-7.3,23.7-7.3,36.2V186.1z M864,231.9
			c-6.1-14.5-9.3-29.9-9.3-45.8v-0.5c0-15.9,3.1-31.3,9.3-45.8c5.9-14,14.4-26.6,25.2-37.4c10.8-10.8,23.4-19.3,37.4-25.2
			c14.5-6.1,29.9-9.3,45.8-9.3c15.9,0,31.3,3.1,45.8,9.3c14,5.9,26.6,14.4,37.4,25.2c10.8,10.8,19.3,23.4,25.2,37.4
			c6.1,14.5,9.3,29.9,9.3,45.8v0.5c0,15.9-3.1,31.3-9.3,45.8c-5.9,14-14.4,26.6-25.2,37.4c-10.8,10.8-23.4,19.3-37.4,25.2
			c-14.5,6.1-29.9,9.3-45.8,9.3c-15.9,0-31.3-3.1-45.8-9.3c-14-5.9-26.6-14.4-37.4-25.2C878.4,258.5,870,245.9,864,231.9z
			 M862.8,186.1c0,14.8,2.9,29.1,8.6,42.7c5.5,13.1,13.4,24.8,23.5,34.8c10.1,10.1,21.8,18,34.8,23.5c13.5,5.7,27.9,8.6,42.7,8.6
			c14.8,0,29.1-2.9,42.7-8.6c13.1-5.5,24.8-13.4,34.8-23.5c10.1-10.1,18-21.8,23.5-34.8c5.7-13.5,8.6-27.9,8.6-42.7v-0.5
			c0-14.8-2.9-29.1-8.6-42.7c-5.5-13.1-13.4-24.8-23.5-34.8c-10.1-10.1-21.8-18-34.8-23.5c-13.5-5.7-27.9-8.6-42.7-8.6
			c-14.8,0-29.1,2.9-42.7,8.6c-13.1,5.5-24.8,13.4-34.8,23.5c-10.1,10.1-18,21.8-23.5,34.8c-5.7,13.5-8.6,27.9-8.6,42.7V186.1z
			 M818.6,266.8H875c-2.1-2.5-4.1-5.1-6-7.8h-50.4V266.8z M818.6,249.7H863c-1.5-2.5-2.9-5.2-4.2-7.8h-40.2V249.7z M1095.8,133.3
			c-6.8-16-16.4-30.3-28.7-42.6c-12.3-12.3-26.7-22-42.6-28.7c-16.6-7-34.2-10.6-52.3-10.6c-18.1,0-35.7,3.6-52.3,10.6
			c-16,6.8-30.3,16.4-42.6,28.7c-12.3,12.3-22,26.7-28.7,42.6c-7,16.6-10.6,34.2-10.6,52.3v0.5c0,13.3,1.9,26.3,5.7,38.9h-17.4V0
			h-7.8v232.7l36.2,0c-5.9-14.9-8.9-30.5-8.9-46.7v-0.5c0-17,3.3-33.6,10-49.2c6.4-15.1,15.5-28.6,27.1-40.2
			c11.6-11.6,25.1-20.7,40.2-27.1c15.6-6.6,32.2-10,49.2-10c17,0,33.6,3.3,49.2,10c15.1,6.4,28.6,15.5,40.2,27.1
			c11.6,11.6,20.7,25.1,27.1,40.2c6.6,15.6,10,32.2,10,49.2v0.5c0,17-3.3,33.6-10,49.2c-6.4,15.1-15.5,28.6-27.1,40.2
			c-11.6,11.6-25.1,20.7-40.2,27.1c-15.6,6.6-32.2,10-49.2,10c-17,0-33.6-3.3-49.2-10c-15.1-6.4-28.6-15.5-40.2-27.1
			c-0.1-0.1-0.2-0.2-0.3-0.3l-64,0v78.6h7.8v-70.8h53c11.9,11.4,25.5,20.4,40.6,26.8c16.6,7,34.2,10.6,52.3,10.6
			c18.1,0,35.7-3.6,52.3-10.6c16-6.8,30.3-16.4,42.6-28.7c12.3-12.3,22-26.7,28.7-42.6c7-16.6,10.6-34.2,10.6-52.3v-0.5
			C1106.4,167.4,1102.8,149.9,1095.8,133.3z M656.2,232.7l117.9-151v151H656.2z M766.3,104.4l-94.1,120.5h94.1V104.4z"/>
	</g>
</g>
</svg>
