<?xml version="1.0" encoding="UTF-8" standalone="no"?>
<svg
   viewBox="0 0 449.05817 129.149"
   version="1.1"
   id="svg4"
   width="449.05817"
   height="129.149"
   xmlns="http://www.w3.org/2000/svg"
   xmlns:svg="http://www.w3.org/2000/svg">
  <defs
     id="defs8" />
  <path
     id="path5446"
     d="m 303.76256,39.575379 v 9.666751 h 16.23006 v 41.910714 h 11.10866 V 49.24213 h 16.23122 v -9.666751 z m 47.36673,0 v 51.577465 h 10.96492 V 72.397717 h 7.7902 1.08201 c 3.70292,6.1555 7.28628,12.407262 10.74875,18.755127 h 12.76789 c -2.11596,-3.606739 -4.23235,-7.1182 -6.3483,-10.532581 -2.11595,-3.462467 -4.25554,-6.900885 -6.41959,-10.315266 2.98157,-1.298424 5.26612,-3.149262 6.85308,-5.553751 1.63506,-2.404495 2.45262,-5.314101 2.45262,-8.728478 0,-5.289884 -1.82763,-9.353359 -5.48246,-12.190661 -3.60674,-2.837302 -8.80088,-4.256728 -15.58155,-4.256728 z m 65.68491,0 c -3.46246,8.127187 -6.90088,16.495338 -10.31526,25.103425 -3.36629,8.608082 -6.68525,17.433148 -9.95536,26.47404 h 11.90205 c 1.25033,-3.751005 2.50161,-7.478173 3.75195,-11.181098 h 20.91913 c 1.25034,3.654832 2.50046,7.382 3.7508,11.181098 h 12.19066 c -3.17393,-8.559995 -6.46854,-17.145005 -9.88292,-25.753087 -3.36629,-8.656176 -6.82791,-17.264383 -10.38655,-25.824378 z m -54.71999,8.728477 h 7.28542 c 3.41438,0 5.98768,0.625061 7.71892,1.875398 1.77932,1.250336 2.66879,3.198572 2.66879,5.843514 0,2.644944 -0.88947,4.592031 -2.66879,5.842362 -1.77933,1.20225 -4.37583,1.804112 -7.79021,1.804112 h -7.21413 z m 60.56236,2.525061 c 1.20224,3.22202 2.40482,6.516628 3.60706,9.882921 1.25034,3.318201 2.45291,6.660363 3.60707,10.026652 h -14.49955 c 2.35641,-6.68449 4.78475,-13.321261 7.28542,-19.909573 z"
     fill="#000000"
     style="stroke-width:0.588721" />
  <path
     d="M 7.2230361,95.288008 V 107.64207 H 0 V 73.666787 h 12.401948 c 4.46633,0 7.895622,0.934806 10.287876,2.804419 2.391178,1.869248 3.587125,4.546138 3.587843,8.030676 0.184963,4.125574 -2.280909,7.909883 -6.12968,9.407053 1.425165,2.249132 2.834726,4.506329 4.228683,6.771595 1.393598,2.26528 2.787555,4.58561 4.181871,6.961 h -8.410554 c -2.281053,-4.18187 -4.641023,-8.299891 -7.07991,-12.354058 H 7.2230361 Z m 0,-5.749266 h 4.7516859 c 2.248768,0 3.959469,-0.40355 5.1321,-1.210657 1.171555,-0.809615 1.757513,-2.084837 1.757871,-3.825667 0,-1.742625 -0.578066,-3.026102 -1.734196,-3.850423 C 15.973649,79.828752 14.270841,79.41713 12.022072,79.41713 H 7.2230361 Z M 57.162818,107.64207 c -0.824322,-2.50131 -1.647926,-4.95615 -2.470812,-7.36455 H 40.912063 c -0.824322,2.43853 -1.647926,4.89337 -2.470812,7.36455 H 30.60105 c 2.154069,-5.95463 4.347955,-11.767567 6.581658,-17.438815 2.232986,-5.669446 4.490005,-11.181422 6.771058,-16.535926 h 7.887551 c 2.343828,5.638962 4.632593,11.301774 6.866296,16.988447 2.233343,5.686307 4.395485,11.348584 6.486421,16.986824 H 57.162818 Z M 43.00246,94.19573 h 9.55126 C 51.79325,91.977448 51.009283,89.767961 50.201821,87.567258 49.394,85.365483 48.594072,83.203341 47.802034,81.080837 46.154109,85.419822 44.554251,89.791274 43.00246,94.195189 Z M 69.327479,73.666787 h 12.972299 c 3.579234,0 6.644074,0.665055 9.194519,1.995163 2.492237,1.274351 4.526315,3.292445 5.820294,5.774551 1.330821,2.5178 1.995876,5.566321 1.995157,9.145555 0,3.58103 -0.672943,6.645869 -2.018835,9.194524 -1.295645,2.49862 -3.327309,4.53911 -5.820289,5.84558 -2.53502,1.34732 -5.607754,2.02027 -9.218197,2.01883 H 69.327479 Z m 12.544534,27.703553 c 3.166712,0 5.59807,-0.92692 7.294063,-2.780744 1.693838,-1.852028 2.54112,-4.520853 2.541838,-8.006463 0,-3.451535 -0.831498,-6.08861 -2.494487,-7.911225 -1.663354,-1.821902 -4.094706,-2.732494 -7.294063,-2.731776 H 76.644673 V 101.37034 Z M 105.1069,73.666787 h 7.3172 v 33.975283 h -7.3172 z m 29.98335,-0.712941 c 2.37778,-0.03344 4.74018,0.386207 6.961,1.236485 2.00967,0.779937 3.82565,1.987657 5.32203,3.539413 1.50872,1.595069 2.66625,3.48873 3.39791,5.558791 1.58337,4.758301 1.58337,9.901384 0,14.659684 -0.73072,2.084711 -1.88796,3.994221 -3.39791,5.606681 -1.49038,1.5649 -3.30755,2.78186 -5.32203,3.56417 -4.4948,1.64651 -9.42773,1.64651 -13.92253,0 -2.01435,-0.78254 -3.83133,-1.99968 -5.3215,-3.56471 -1.51027,-1.61202 -2.66756,-3.52142 -3.39791,-5.606141 -1.58337,-4.7583 -1.58337,-9.901383 0,-14.659684 0.73103,-2.070196 1.88864,-3.963811 3.39791,-5.558249 1.49592,-1.552181 3.31179,-2.760124 5.3215,-3.539955 2.22099,-0.850284 4.58357,-1.269912 6.96153,-1.236485 z m 0,29.033114 c 1.75984,0.0476 3.49486,-0.42301 4.98951,-1.35324 1.42551,-0.942416 2.53478,-2.291634 3.18375,-3.872479 1.45637,-3.956693 1.45637,-8.302666 0,-12.259359 -0.64469,-1.577554 -1.75539,-2.920838 -3.18375,-3.850422 -3.08995,-1.772774 -6.88854,-1.772774 -9.97849,0 -1.42888,0.928989 -2.53974,2.272456 -3.18375,3.850422 -1.45778,3.95644 -1.45778,8.302919 0,12.259359 0.64843,1.581168 1.75781,2.93054 3.18375,3.872479 1.49433,0.93051 3.22927,1.4011 4.98898,1.35324 z M 0,21.530607 V 64.599791 H 43.069181 V 21.530607 Z m 30.035002,30.395507 c -0.796981,1.086214 -1.888875,1.920962 -3.146089,2.405168 -1.564755,0.601311 -3.232477,0.889076 -4.908264,0.84692 H 12.328771 V 30.951653 h 9.091749 c 2.679224,0 4.754555,0.536455 6.225994,1.609364 1.470395,1.06942 2.300752,2.809486 2.207158,4.62524 0.02614,1.054274 -0.247993,2.094253 -0.790423,2.998657 -0.568893,0.88357 -1.381191,1.583749 -2.338985,2.016144 1.302504,0.387578 2.449565,1.176136 3.277915,2.253432 0.777366,1.090841 1.176471,2.40607 1.136402,3.74496 0.03514,1.327454 -0.351203,2.631913 -1.103579,3.726126 z m -6.16035,-11.842895 c 0.679532,-0.573995 1.051264,-1.43294 1.004574,-2.321228 0,-1.91983 -1.30679,-2.879745 -3.920369,-2.879745 h -3.72236 v 6.031751 h 3.72236 c 1.039004,0.07091 2.070194,-0.222899 2.915795,-0.830778 z m -2.289483,4.62524 h -4.348134 v 6.539689 h 4.282489 c 1.188991,0.07393 2.372354,-0.215442 3.393062,-0.829703 0.78263,-0.536745 1.23139,-1.440576 1.185904,-2.388487 0,-2.213974 -1.50444,-3.320961 -4.513321,-3.320961 z M 53.836476,21.530607 V 64.599791 H 96.90566 V 21.530607 Z M 83.87148,51.926114 c -0.796981,1.086215 -1.888875,1.920962 -3.146089,2.405168 -1.564755,0.601311 -3.232478,0.889076 -4.908266,0.84692 H 66.165247 V 30.951653 h 9.091752 c 2.678862,0 4.754197,0.536455 6.225993,1.609364 1.470396,1.069421 2.300751,2.809487 2.207156,4.62524 0.02614,1.054274 -0.247993,2.094253 -0.790422,2.998657 -0.568893,0.883571 -1.381192,1.58375 -2.338988,2.016144 1.302503,0.387578 2.449567,1.176136 3.277915,2.253432 0.777365,1.090841 1.17647,2.40607 1.136402,3.74496 0.03515,1.327454 -0.351201,2.631912 -1.103575,3.726126 z M 77.711129,40.083219 c 0.679531,-0.573995 1.051267,-1.43294 1.004575,-2.321228 0,-1.91983 -1.306789,-2.879745 -3.920368,-2.879745 h -3.722365 v 6.031751 h 3.722365 c 1.039004,0.07091 2.070189,-0.222899 2.915793,-0.830778 z m -2.289483,4.62524 h -4.348133 v 6.539689 h 4.282485 c 1.189045,0.07376 2.372416,-0.215791 3.393063,-0.830241 0.782634,-0.536744 1.231392,-1.440576 1.185908,-2.388488 0,-2.213973 -1.504441,-3.32096 -4.513323,-3.32096 z m 32.251304,19.891332 h 43.06918 V 21.530607 h -43.06918 z m 30.9325,-10.957237 c -1.09924,0.590066 -2.27212,1.03121 -3.48776,1.311812 -1.36661,0.325993 -2.76724,0.487661 -4.17218,0.481571 -1.78001,0.026 -3.55076,-0.260655 -5.23165,-0.84692 -2.9918,-1.021684 -5.349,-3.360239 -6.39441,-6.343832 -0.59172,-1.667978 -0.88125,-3.428113 -0.85499,-5.197745 -0.0254,-1.739932 0.27626,-3.469155 0.88943,-5.097663 0.56261,-1.471105 1.43773,-2.80261 2.56497,-3.902614 1.14845,-1.104512 2.51772,-1.953364 4.01776,-2.49072 1.68473,-0.59622 3.46192,-0.888624 5.24887,-0.863601 1.28256,-0.0067 2.56171,0.132674 3.81275,0.415389 1.15776,0.262583 2.27786,0.669876 3.33387,1.212269 v 4.716174 c -0.93773,-0.620735 -1.9637,-1.096535 -3.04331,-1.411355 -1.12234,-0.32486 -2.28547,-0.487035 -3.45387,-0.481571 -1.47372,-0.04267 -2.93545,0.276573 -4.2572,0.929782 -1.15413,0.599873 -2.09694,1.538732 -2.70164,2.690345 -0.66247,1.328266 -0.98561,2.799946 -0.94054,4.283565 -0.0431,1.48515 0.26745,2.959274 0.9061,4.300785 0.57425,1.154515 1.49467,2.1009 2.63277,2.707024 1.29721,0.653556 2.73698,0.973135 4.18887,0.929783 2.45255,0.01573 4.85936,-0.663725 6.94163,-1.959647 v 4.617169 z"
     id="path2-7"
     style="stroke-width:0.588721" />
  <path
     d="m 260.91226,79.251405 c 3.63161,-4.705952 7.28277,-9.340516 10.95347,-13.903697 -3.67035,-4.563546 -7.3215,-9.198291 -10.95347,-13.904242 -3.63017,-4.706667 -7.20169,-9.448668 -10.71456,-14.226002 v 56.259403 c 3.51359,-4.776257 7.08511,-9.51808 10.71456,-14.225462 z m 8.91796,14.225462 H 250.1977 V 108.46155 H 231.651 V 40.827368 c -3.38122,1.730788 -6.78145,3.502829 -10.2007,5.316121 -3.42176,1.814367 -6.65735,3.586766 -9.70677,5.317196 V 34.397984 c 3.29586,-1.895796 6.96423,-3.894901 11.00513,-5.997315 4.03766,-2.102055 8.28285,-4.224916 12.73555,-6.368582 h 14.71349 v 15.185377 h 19.63252 c 3.99211,6.203575 8.26169,12.478534 12.80873,18.824877 4.52838,-6.319081 8.78056,-12.567316 12.75653,-18.744704 C 282.644,9.9385505 252.63826,-4.9353189 223.14693,1.4825219 193.6559,7.9002965 172.55236,33.896324 172.32097,64.079474 c -0.2314,30.183153 20.47111,56.499676 49.86027,63.368836 29.38947,6.86924 59.61973,-7.54285 72.78916,-34.703217 -3.85616,-5.965385 -7.96664,-11.996418 -12.33145,-18.093099 -4.54848,6.347058 -8.81806,12.622016 -12.80873,18.824873 z M 300.8515,55.950331 c -2.47153,3.160262 -4.95131,6.29254 -7.43935,9.396836 2.42706,3.017494 4.84478,6.070135 7.25318,9.157935 0.94625,-6.144426 1.00894,-12.392597 0.18617,-18.554771 z"
     fill="#000000"
     id="path825-8"
     style="stroke-width:0.588721" />
</svg>
