<svg xmlns="http://www.w3.org/2000/svg" viewBox="0 0 552.366 240"><path d="M13.424 177.122v22.96H0v-63.143h23.049q12.451 0 19.12 5.212 6.666 5.211 6.668 14.925a17.899 17.899 0 0 1-11.392 17.484q3.974 6.27 7.859 12.585 3.885 6.315 7.772 12.937H37.445q-6.359-11.658-13.158-22.96H13.424Zm0-10.685h8.831q6.269 0 9.538-2.251 3.266-2.256 3.267-7.109 0-4.859-3.223-7.156-3.225-2.295-9.494-2.295h-8.919Zm92.813 33.645q-2.298-6.973-4.592-13.687h-25.61q-2.298 6.798-4.592 13.687H56.872q6.005-16.6 12.232-32.411 6.225-15.804 12.584-30.731h14.659q6.534 15.72 12.761 31.573 6.226 15.852 12.055 31.57h-14.926ZM79.92 175.091h17.751q-2.12-6.183-4.371-12.318-2.252-6.138-4.46-12.055-4.594 12.096-8.92 24.373Zm48.925-38.152h24.109q9.978 0 17.088 3.708a25.07 25.07 0 0 1 10.817 10.732q3.71 7.018 3.708 16.997 0 9.982-3.752 17.088a25.538 25.538 0 0 1-10.817 10.864q-7.066 3.756-17.132 3.752h-24.021Zm23.314 51.487q8.828 0 13.556-5.168 4.722-5.163 4.724-14.881 0-9.621-4.636-14.702-4.636-5.079-13.556-5.077h-9.803v39.828Zm43.182-51.487h13.599v63.143h-13.599Zm55.724-1.325a34.817 34.817 0 0 1 12.937 2.298 27.626 27.626 0 0 1 9.891 6.578 29.19 29.19 0 0 1 6.315 10.331 43.145 43.145 0 0 1 0 27.245 29.54 29.54 0 0 1-6.315 10.419 27.313 27.313 0 0 1-9.891 6.625 37.613 37.613 0 0 1-25.875 0 27.314 27.314 0 0 1-9.89-6.625 29.51 29.51 0 0 1-6.315-10.419 43.145 43.145 0 0 1 0-27.245 29.142 29.142 0 0 1 6.315-10.331 27.604 27.604 0 0 1 9.89-6.578 34.822 34.822 0 0 1 12.938-2.298Zm0 53.958a16.69 16.69 0 0 0 9.272-2.515 15.838 15.838 0 0 0 5.917-7.197 32.98 32.98 0 0 0 0-22.784 15.562 15.562 0 0 0-5.917-7.156 18.633 18.633 0 0 0-18.545 0 15.539 15.539 0 0 0-5.917 7.156 32.95 32.95 0 0 0 0 22.784 15.82 15.82 0 0 0 5.917 7.197 16.689 16.689 0 0 0 9.273 2.515ZM0 40.044v80.044h80.044V40.044Zm55.82 56.489a13.085 13.085 0 0 1-5.847 4.471 23.765 23.765 0 0 1-9.122 1.574H22.913V57.553H39.81q7.469 0 11.571 2.991a9.993 9.993 0 0 1 4.102 8.596 10.337 10.337 0 0 1-1.469 5.573 10.125 10.125 0 0 1-4.347 3.747 12.003 12.003 0 0 1 6.092 4.188 11.405 11.405 0 0 1 2.112 6.959 11.677 11.677 0 0 1-2.051 6.926ZM44.371 74.524a5.284 5.284 0 0 0 1.867-4.314q0-5.352-7.286-5.352h-6.918v11.209h6.918a8.314 8.314 0 0 0 5.419-1.543Zm-4.255 8.596h-8.081v12.154h7.959a10.916 10.916 0 0 0 6.306-1.543 5.087 5.087 0 0 0 2.204-4.439q0-6.172-8.388-6.172Zm59.939-43.076v80.044h80.044V40.044Zm55.82 56.489a13.085 13.085 0 0 1-5.847 4.471 23.764 23.764 0 0 1-9.122 1.574h-17.938V57.553h16.897q7.468 0 11.571 2.991a9.993 9.993 0 0 1 4.102 8.596 10.337 10.337 0 0 1-1.469 5.573 10.125 10.125 0 0 1-4.347 3.747 12.003 12.003 0 0 1 6.092 4.188 11.405 11.405 0 0 1 2.112 6.959 11.677 11.677 0 0 1-2.051 6.926Zm-11.449-22.009a5.284 5.284 0 0 0 1.867-4.314q0-5.352-7.286-5.352h-6.918v11.209h6.918a8.314 8.314 0 0 0 5.419-1.543Zm-4.255 8.596h-8.081v12.154h7.959a10.916 10.916 0 0 0 6.306-1.543 5.087 5.087 0 0 0 2.204-4.439q0-6.173-8.388-6.172Zm59.939 36.968h80.044V40.044H200.11Zm57.488-20.364a26.131 26.131 0 0 1-6.482 2.438 32.805 32.805 0 0 1-7.754.895 28.27 28.27 0 0 1-9.723-1.574 19.15 19.15 0 0 1-11.884-11.79 27.665 27.665 0 0 1-1.589-9.66 25.815 25.815 0 0 1 1.653-9.474 20.232 20.232 0 0 1 4.767-7.253 20.978 20.978 0 0 1 7.467-4.629 28.062 28.062 0 0 1 9.755-1.605 31.403 31.403 0 0 1 7.086.772 26.289 26.289 0 0 1 6.196 2.253v8.765a20.792 20.792 0 0 0-5.656-2.623 22.705 22.705 0 0 0-6.419-.895 16.763 16.763 0 0 0-7.912 1.728 11.837 11.837 0 0 0-5.021 4.999 16.701 16.701 0 0 0-1.748 7.962 17.419 17.419 0 0 0 1.684 7.993 11.505 11.505 0 0 0 4.893 5.031 16.226 16.226 0 0 0 7.785 1.728 24.123 24.123 0 0 0 12.901-3.642v8.581Zm262.337-8.039h-14.173v59.506h14.041c8.948 0 15.934-2.618 20.764-7.783 4.805-5.14 7.24-12.597 7.24-22.161 0-9.481-2.392-16.852-7.11-21.907-4.74-5.08-11.726-7.655-20.762-7.655Zm1.283 82.032h-37.916V69.159h38.058c10.556 0 19.71 2.067 27.203 6.145a42.298 42.298 0 0 1 3.803 2.37 120 120 0 1 0-1.475 88.375c-.782.503-1.581.995-2.405 1.451-7.445 4.125-16.62 6.217-27.268 6.217Zm-56.375 27.848h-34.469V75.868q-9.426 4.825-18.958 9.88-9.539 5.058-18.04 9.882V63.918q9.188-5.285 20.453-11.146 11.256-5.859 23.669-11.835h27.345Z" fill="#fff"/></svg>