<?xml version="1.0" encoding="UTF-8" standalone="no"?>
<svg
   viewBox="0 0 999.99998 222.34056"
   version="1.1"
   id="svg4"
   width="1000"
   height="222.34056"
   xmlns="http://www.w3.org/2000/svg"
   xmlns:svg="http://www.w3.org/2000/svg">
  <defs
     id="defs8" />
  <path
     d="M 407.66857,0 C 362.70467,0 322.1679,27.085779 304.96193,68.626261 287.756,110.16665 297.26958,157.98042 329.06371,189.77456 360.85786,221.5687 408.67162,231.08228 450.21202,213.87635 491.7525,196.67038 518.83828,156.13361 518.83828,111.1697 518.83828,49.772372 469.06591,0 407.66857,0 Z m 24.82234,186.73361 H 400.55834 V 70.285193 c -5.82158,2.979966 -11.6759,6.030957 -17.56296,9.152972 -5.89138,3.123869 -11.46191,6.175477 -16.71159,9.154826 V 59.21547 c 5.6746,-3.264066 11.99027,-6.706003 18.94703,-10.325813 6.95182,-3.619192 14.26091,-7.273896 21.9273,-10.964112 h 25.33279 z"
     id="path825"
     fill="#000000"
     style="stroke-width:1.01336" />
  <path
     id="path5690"
     d="m 891.59665,62.98641 c -7.33032,0 -13.97023,1.122436 -19.92076,3.364658 -5.86429,2.242222 -10.90931,5.474387 -15.13501,9.700113 -4.22573,4.225726 -7.45988,9.315142 -9.70209,15.265654 -2.24223,5.864272 -3.36467,12.461775 -3.36467,19.792105 0,7.50282 1.07805,14.27194 3.23404,20.30869 2.15598,5.95051 5.26092,10.99554 9.31417,15.13502 4.05323,4.13949 9.01142,7.33123 14.87571,9.57345 5.86429,2.15598 12.46185,3.23403 19.79216,3.23403 5.51924,0 10.78038,-0.64802 15.78221,-1.94161 5.00192,-1.20735 9.4009,-2.88902 13.19541,-5.04501 v -17.98113 c -8.0202,5.08812 -16.77388,7.63184 -26.26021,7.63184 -6.20923,0 -11.51263,-1.20726 -15.9108,-3.62196 -4.31203,-2.4147 -7.633,-5.90725 -9.96139,-10.47794 -2.24225,-4.65692 -3.36272,-10.26118 -3.36272,-16.81538 0,-6.55418 1.16293,-12.11802 3.49131,-16.688702 2.41483,-4.570683 5.82255,-8.063243 10.22071,-10.477942 4.48441,-2.414701 9.87465,-3.621957 16.17012,-3.621957 4.57065,0 8.92524,0.648016 13.0648,1.941606 4.13946,1.207351 7.97724,3.018234 11.51304,5.432934 V 69.325822 c -3.88075,-2.069743 -8.10614,-3.622212 -12.67688,-4.657083 -4.48441,-1.121111 -9.27099,-1.682329 -14.35915,-1.682329 z m -335.94532,1.941606 v 92.490504 h 35.18641 c 9.83128,0 18.19527,-1.81087 25.09442,-5.43293 6.89914,-3.70829 12.16017,-9.01174 15.78222,-15.91088 3.7083,-6.98539 5.56357,-15.35136 5.56357,-25.0964 0,-9.74503 -1.81089,-18.024208 -5.43294,-24.837112 C 628.22297,79.242055 622.91755,73.983 615.93216,70.36095 609.03301,66.738899 600.71143,64.928016 590.9664,64.928016 Z m 122.76254,0 c -6.20923,14.574441 -12.37669,29.578338 -18.49968,45.015174 -6.03676,15.43683 -11.98623,31.26234 -17.8505,47.47533 h 21.34381 c 2.24222,-6.72666 4.48511,-13.40899 6.72733,-20.04941 h 37.51397 c 2.24222,6.55419 4.48313,13.23651 6.72536,20.04941 h 21.86236 c -5.6918,-15.3506 -11.59887,-30.74409 -17.72186,-46.18093 -6.03675,-15.523072 -12.24662,-30.95898 -18.62833,-46.309574 z m 69.07644,0 v 92.490504 h 19.14491 V 93.515739 c 6.72666,10.176241 13.54017,20.696321 20.43931,31.562481 6.89915,10.77991 13.71265,21.56039 20.43932,32.3403 h 20.18003 V 64.928016 H 808.54897 V 128.1836 C 801.8223,117.40369 795.05122,106.7968 788.23831,96.361844 781.51165,85.84065 774.65573,75.36297 767.67035,64.928016 Z m 186.40605,0 V 157.41852 H 1000 V 140.86045 H 953.81711 V 118.09358 H 992.6255 V 101.53551 H 953.81711 V 81.486094 H 997.5418 V 64.928016 Z m -358.3223,17.074653 h 14.3572 c 8.71017,0 15.30767,2.501309 19.79211,7.503188 4.57068,4.915639 6.85599,12.072373 6.85599,21.472453 0,9.48633 -2.32772,16.77425 -6.98463,21.86237 -4.57069,5.00188 -11.16818,7.50319 -19.79211,7.50319 h -14.22856 z m 113.31775,3.105381 c 2.15599,5.778034 4.31208,11.685103 6.46806,17.72186 2.24223,5.9505 4.39833,11.94437 6.46807,17.98113 h -26.0009 c 4.22572,-11.98726 8.58033,-23.888204 13.06477,-35.70299 z"
     fill="#000000"
     style="stroke-width:1.01336" />
  <path
     d="m 12.436189,164.08834 v 21.27047 H 0 v -58.49658 h 21.352921 c 7.689852,0 13.594201,1.60949 17.713038,4.82848 4.116991,3.21774 6.1761,7.82666 6.177327,13.82673 0.318872,7.1035 -3.926785,13.61957 -10.553708,16.19743 2.45376,3.87241 4.880657,7.75872 7.280689,11.65891 2.399415,3.90021 4.799447,7.89521 7.200097,11.98503 H 34.689578 c -3.927373,-7.20009 -7.990626,-14.29025 -12.189761,-21.27047 z m 0,-9.89873 h 8.181157 c 3.87179,0 6.81717,-0.69513 8.83614,-2.08537 2.016498,-1.39332 3.025365,-3.58892 3.026591,-6.5868 0,-3.00035 -0.995268,-5.20985 -2.985823,-6.6285 -1.991792,-1.41741 -4.923593,-2.12612 -8.795383,-2.12612 h -8.262682 z m 85.983278,31.1692 c -1.419266,-4.30721 -2.837296,-8.53382 -4.254099,-12.67983 H 70.439907 c -1.419266,4.1985 -2.837296,8.42512 -4.254099,12.67983 H 52.687024 c 3.708751,-10.25232 7.486046,-20.26099 11.331904,-30.02602 3.844622,-9.76069 7.73062,-19.25057 11.657992,-28.46963 h 13.580308 c 4.035458,9.70883 7.976116,19.45872 11.821972,29.24967 3.84586,9.79035 7.56849,19.53932 11.16792,29.24691 H 98.419467 Z M 74.039023,162.20586 h 16.444782 c -1.309337,-3.81868 -2.659117,-7.62253 -4.049361,-11.41156 -1.390851,-3.7909 -2.768124,-7.51353 -4.131807,-11.16793 -2.836677,7.47061 -5.591222,14.9971 -8.263614,22.57949 z m 45.324817,-35.34363 h 22.33492 c 6.16251,0 11.43936,1.14505 15.83056,3.43515 4.29099,2.19411 7.79315,5.66873 10.02103,9.94228 2.29133,4.33438 3.43637,9.58314 3.43515,15.74626 0,6.16498 -1.15865,11.44183 -3.47592,15.83057 -2.23076,4.30197 -5.72876,7.81516 -10.02101,10.06456 -4.36465,2.31974 -9.6551,3.47837 -15.87134,3.4759 h -22.25339 z m 21.59934,47.69737 c 5.45226,0 9.63842,-1.5959 12.55847,-4.78771 2.91636,-3.18872 4.37516,-7.78404 4.37638,-13.78597 0,-5.94202 -1.43162,-10.48207 -4.29485,-13.62014 -2.86386,-3.13746 -7.05001,-4.70526 -12.55847,-4.7034 h -9.08164 v 36.89722 z m 40.00443,-47.69737 h 12.5983 v 58.49658 h -12.5983 z m 51.6235,-1.22842 c 4.09392,-0.0576 8.16136,0.66495 11.98502,2.1289 3.46014,1.34283 6.5868,3.4222 9.16316,6.09395 2.5975,2.74602 4.59047,6.00609 5.85031,9.56986 2.72635,8.19283 2.72635,17.04825 0,25.24109 -1.25822,3.589 -3.25069,6.87634 -5.85031,9.6523 -2.56596,2.69469 -5.69466,4.7903 -9.16316,6.13749 -7.73888,2.83487 -16.23209,2.83487 -23.97097,0 -3.46816,-1.34734 -6.59652,-3.44293 -9.16224,-6.13749 -2.60038,-2.77574 -4.59294,-6.06355 -5.8503,-9.65324 -2.72594,-8.19226 -2.72594,-17.04696 0,-25.23922 1.25852,-3.56467 3.25163,-6.82531 5.8503,-9.57079 2.57571,-2.67209 5.70215,-4.75154 9.16224,-6.09395 3.8241,-1.4635 7.89176,-2.18598 11.98595,-2.1289 z m 0,49.98839 c 3.02998,0.0819 6.01724,-0.72833 8.59064,-2.32994 2.45436,-1.6226 4.36421,-3.9456 5.48159,-6.6674 2.50749,-6.81239 2.50749,-14.29503 0,-21.10742 -1.11,-2.71614 -3.02234,-5.02892 -5.48159,-6.62942 -5.32009,-3.05226 -11.86027,-3.05226 -17.18036,0 -2.46016,1.59947 -4.37277,3.91258 -5.48158,6.62942 -2.50992,6.81196 -2.50992,14.29546 0,21.10742 1.11647,2.72233 3.02653,5.04557 5.48158,6.6674 2.57294,1.60188 5.55998,2.41212 8.58972,2.32994 z M 0,37.097331 V 111.25123 H 74.153897 V 37.097331 Z m 51.712439,52.332212 c -1.372196,1.870177 -3.252153,3.307395 -5.416743,4.141072 -2.694037,1.035617 -5.565422,1.531389 -8.45075,1.459102 H 21.226931 v -41.7118 h 15.653614 c 4.61231,0 8.185494,0.923327 10.719543,2.769978 2.531921,1.841447 3.961614,4.837808 3.800146,7.964384 0.04499,1.815185 -0.426977,3.605758 -1.360897,5.162906 -0.979489,1.521277 -2.378052,2.726803 -4.027127,3.471274 2.242577,0.667308 4.217517,2.024999 5.643724,3.879823 1.338228,1.877888 2.025364,4.142013 1.956588,6.446916 0.0607,2.285846 -0.604497,4.532137 -1.900083,6.416345 z M 41.106847,69.039166 c 1.169717,-0.988069 1.809712,-2.466543 1.729617,-3.995624 0,-3.305446 -2.249944,-4.958169 -6.749853,-4.958169 h -6.40893 v 10.384176 h 6.40893 c 1.788756,0.122045 3.564074,-0.383459 5.020236,-1.429456 z m -3.942816,7.964383 h -7.48635 v 11.259638 h 7.373331 c 2.047323,0.126725 4.084777,-0.372139 5.841967,-1.430383 1.347773,-0.924312 2.120457,-2.480901 2.041811,-4.113279 0,-3.811886 -2.59025,-5.71752 -7.770759,-5.716902 z M 92.693296,37.097331 V 111.25123 H 166.8472 V 37.097331 Z m 51.711514,52.332212 c -1.37215,1.870214 -3.25212,3.307441 -5.41674,4.141072 -2.69404,1.035617 -5.56542,1.531389 -8.45075,1.459102 H 113.9193 v -41.7118 h 15.65362 c 4.61231,0 8.18549,0.923327 10.71954,2.769978 2.53192,1.841446 3.96162,4.837807 3.80016,7.964384 0.045,1.815185 -0.42699,3.605758 -1.36091,5.162906 -0.97949,1.521277 -2.37805,2.726804 -4.02713,3.471274 2.24258,0.667307 4.21752,2.024996 5.64373,3.879823 1.33823,1.877889 2.02536,4.142014 1.95658,6.446916 0.0608,2.285854 -0.60444,4.532164 -1.90008,6.416345 z M 133.79922,69.039166 c 1.16971,-0.988069 1.80971,-2.466543 1.72962,-3.995624 0,-3.305446 -2.24996,-4.958169 -6.74986,-4.958169 h -6.40893 v 10.384176 h 6.40893 c 1.78875,0.122045 3.56408,-0.383459 5.02024,-1.429456 z m -3.94282,7.964383 h -7.48635 v 11.259638 h 7.37334 c 2.04722,0.127003 4.08467,-0.371536 5.84196,-1.429457 1.34778,-0.924311 2.12046,-2.4809 2.04182,-4.113279 0,-3.811886 -2.59026,-5.717519 -7.77077,-5.716902 z m 55.52927,34.247681 h 74.15391 V 37.097331 h -74.15391 z m 53.2577,-18.864573 c -1.8926,1.015941 -3.91201,1.775475 -6.00501,2.258598 -2.35294,0.561275 -4.76448,0.839626 -7.18342,0.829141 -3.0647,0.04477 -6.11347,-0.448778 -9.00753,-1.458176 -5.1511,-1.759074 -9.20958,-5.785454 -11.0095,-10.922423 -1.01879,-2.871824 -1.51729,-5.902317 -1.47207,-8.949162 -0.0438,-2.995711 0.47564,-5.972981 1.53136,-8.776848 0.96867,-2.532858 2.4754,-4.825363 4.41621,-6.719283 1.97723,-1.902014 4.33478,-3.363836 6.91754,-4.289298 2.90072,-1.0262 5.96058,-1.529328 9.03717,-1.485968 2.20824,-0.01151 4.41061,0.22843 6.56457,0.715192 1.99336,0.452109 3.92188,1.153359 5.74006,2.087211 v 8.120021 c -1.61454,-1.068743 -3.38099,-1.887946 -5.23979,-2.429985 -1.93237,-0.559323 -3.93498,-0.838549 -5.94666,-0.829141 -2.53738,-0.07347 -5.05408,0.476188 -7.32978,1.600844 -1.98699,1.032582 -3.61023,2.648713 -4.65153,4.631145 -1.14075,2.287205 -1.69712,4.821392 -1.61937,7.37611 -0.0742,2.557038 0.46052,5.095085 1.56008,7.404828 0.98885,1.987432 2.57357,3.616519 4.53294,4.659864 2.23337,1.125574 4.71228,1.676124 7.21214,1.601771 4.22264,0.02708 8.36655,-1.142762 11.95166,-3.374002 v 7.948635 z"
     id="path2-7"
     style="stroke-width:1.01336" />
</svg>
