<?xml version="1.0" encoding="UTF-8"?>
<!DOCTYPE svg PUBLIC "-//W3C//DTD SVG 1.1//EN" "http://www.w3.org/Graphics/SVG/1.1/DTD/svg11.dtd">
<svg xmlns="http://www.w3.org/2000/svg" version="1.1" width="512px" height="512px" style="shape-rendering:geometricPrecision; text-rendering:geometricPrecision; image-rendering:optimizeQuality; fill-rule:evenodd; clip-rule:evenodd" xmlns:xlink="http://www.w3.org/1999/xlink">
<g><path style="opacity:0.983" fill="#000000" d="M 52.5,-0.5 C 187.833,-0.5 323.167,-0.5 458.5,-0.5C 487.167,6.16667 504.833,23.8333 511.5,52.5C 511.5,187.833 511.5,323.167 511.5,458.5C 504.833,487.167 487.167,504.833 458.5,511.5C 323.167,511.5 187.833,511.5 52.5,511.5C 23.8333,504.833 6.16667,487.167 -0.5,458.5C -0.5,323.167 -0.5,187.833 -0.5,52.5C 6.16667,23.8333 23.8333,6.16667 52.5,-0.5 Z M 60.5,42.5 C 191.876,42.0069 323.21,42.5069 454.5,44C 461.947,47.0481 466.447,52.5481 468,60.5C 468.667,111.167 468.667,161.833 468,212.5C 445.167,189.667 422.333,166.833 399.5,144C 388.833,135.333 378.167,135.333 367.5,144C 317.667,193.833 267.833,243.667 218,293.5C 199.833,275.333 181.667,257.167 163.5,239C 154.38,232.124 145.047,231.791 135.5,238C 104.667,268.833 73.8333,299.667 43,330.5C 42.3333,240.5 42.3333,150.5 43,60.5C 45.0141,50.654 50.8474,44.654 60.5,42.5 Z M 382.5,191.5 C 411.416,218.915 439.916,246.915 468,275.5C 468.667,333.833 468.667,392.167 468,450.5C 466.167,460.333 460.333,466.167 450.5,468C 320.5,468.667 190.5,468.667 60.5,468C 50.6667,466.167 44.8333,460.333 43,450.5C 42.3333,431.167 42.3333,411.833 43,392.5C 78.3333,357.167 113.667,321.833 149,286.5C 190.833,328.333 232.667,370.167 274.5,412C 287.566,418.633 298.399,416.133 307,404.5C 310.544,396.979 310.21,389.646 306,382.5C 287.529,363.028 268.695,343.862 249.5,325C 294.035,280.632 338.368,236.132 382.5,191.5 Z"/></g>
<g><path style="opacity:0.971" fill="#000000" d="M 120.5,84.5 C 147.07,82.9292 163.57,94.9292 170,120.5C 172.055,147.094 160.222,163.594 134.5,170C 107.906,172.055 91.4064,160.222 85,134.5C 83.1465,107.886 94.9799,91.2195 120.5,84.5 Z"/></g>
</svg>
